<mxfile host="app.diagrams.net" modified="2024-06-21T22:10:27.596Z" agent="Mozilla/5.0 (Windows NT 10.0; Win64; x64) AppleWebKit/537.36 (KHTML, like Gecko) Chrome/126.0.0.0 Safari/537.36" version="24.4.8" etag="FGi1tra_ICFBn4Sa2obV" type="github">
  <diagram name="Page-1" id="jryyfOemUUHFJ6-Rivgo">
    <mxGraphModel>
      <root>
        <mxCell id="0" />
        <mxCell id="1" parent="0" />
      </root>
    </mxGraphModel>
  </diagram>
</mxfile>
